<svg xmlns="http://www.w3.org/2000/svg" xmlns:xlink="http://www.w3.org/1999/xlink" viewBox="0 0 1644.9 544.88"><defs><style>.cls-1,.cls-3,.cls-4,.cls-5{opacity:0.7;}.cls-2{fill:#025158;}.cls-3{fill:none;stroke:#025158;stroke-miterlimit:10;stroke-width:20px;}.cls-4{fill:url(#Gradiente_sem_nome_300);}.cls-5{fill:url(#Gradiente_sem_nome_300-2);}</style><linearGradient id="Gradiente_sem_nome_300" x1="-414.1" y1="484.37" x2="-201.43" y2="209.01" gradientTransform="translate(429.98)" gradientUnits="userSpaceOnUse"><stop offset="0" stop-color="#025158"/><stop offset="0.28" stop-color="#6cbe9f"/><stop offset="0.31" stop-color="#72bc98"/><stop offset="0.35" stop-color="#82b585"/><stop offset="0.4" stop-color="#9daa67"/><stop offset="0.45" stop-color="#c39a3c"/><stop offset="0.51" stop-color="#f28705"/><stop offset="0.76" stop-color="#f25c27"/><stop offset="0.79" stop-color="#f24d21"/><stop offset="0.84" stop-color="#f22e15"/><stop offset="0.9" stop-color="#f2170c"/><stop offset="0.95" stop-color="#f20a07"/><stop offset="1" stop-color="#f20505"/></linearGradient><linearGradient id="Gradiente_sem_nome_300-2" x1="3254.94" y1="378.13" x2="3467.61" y2="102.77" gradientTransform="matrix(-1, 0, 0, 1, 3774.25, 0)" xlink:href="#Gradiente_sem_nome_300"/></defs><g id="Camada_2" data-name="Camada 2"><g id="Logo"><g class="cls-1"><path class="cls-2" d="M780.3,242.8a8.61,8.61,0,0,1,1.27,4.46,8.39,8.39,0,0,1-2,5.46q-2.55,3-7.82,3a15.61,15.61,0,0,1-7.48-1.81Q752,247.1,752,226.26a11.82,11.82,0,0,0-4-9.42q-4-3.48-11.48-3.47H704.7v32.07a10.65,10.65,0,0,1-2.47,7.28,8.29,8.29,0,0,1-6.55,2.81,13.43,13.43,0,0,1-8.59-2.89,8.83,8.83,0,0,1-3.65-7.2V149.87a9.64,9.64,0,0,1,3-7.19,10.2,10.2,0,0,1,7.4-2.89h49a32.14,32.14,0,0,1,16.66,4.63A34.57,34.57,0,0,1,772,157.15a35.78,35.78,0,0,1,4.67,18.19,31.58,31.58,0,0,1-4.59,16.12,35.94,35.94,0,0,1-11.91,12.48q10.73,7.27,11.74,19.51a27.18,27.18,0,0,1,.51,5.13,51.39,51.39,0,0,0,1.36,7.36,5.5,5.5,0,0,0,3.06,3.39A9.92,9.92,0,0,1,780.3,242.8Zm-32.4-49.28a21.36,21.36,0,0,0,4.76-7.52,27.24,27.24,0,0,0,1.87-10.17,19.33,19.33,0,0,0-1.87-8.51,17.59,17.59,0,0,0-4.76-6.2A9.41,9.41,0,0,0,742,158.8H704.7v37.54H742A8.56,8.56,0,0,0,747.9,193.52Z"/><path class="cls-2" d="M871.89,215.68a11,11,0,0,1-7.14,2.48H808.62a24.85,24.85,0,0,0,9.35,15.3,26.67,26.67,0,0,0,16.5,5.54,37.83,37.83,0,0,0,10.89-1.24,28.83,28.83,0,0,0,6.2-2.65c1.54-.94,2.58-1.57,3.15-1.9a13.3,13.3,0,0,1,5.78-1.49,8.49,8.49,0,0,1,6.13,2.48,7.82,7.82,0,0,1,2.55,5.79c0,3-1.59,5.68-4.76,8.1a40.94,40.94,0,0,1-12.76,6.45,51.26,51.26,0,0,1-16.16,2.64q-14.28,0-24.92-5.78a41,41,0,0,1-16.41-16,45.55,45.55,0,0,1-5.78-22.9q0-14.22,6.12-25a42.84,42.84,0,0,1,37.59-22.15,40.54,40.54,0,0,1,21.17,6,45.11,45.11,0,0,1,15.91,16,42.16,42.16,0,0,1,6,21.82A8.39,8.39,0,0,1,871.89,215.68Zm-63.1-14.05h44.56v-1.16q-.68-6.94-7-11.9a22.47,22.47,0,0,0-14.29-5Q812.35,183.6,808.79,201.63Z"/><path class="cls-2" d="M950.8,169.8q8.85,4.38,8.85,11.65a9.84,9.84,0,0,1-2.21,6.37,7.1,7.1,0,0,1-5.79,2.73,11.05,11.05,0,0,1-4.42-.75,15.42,15.42,0,0,1-3.31-2,24.58,24.58,0,0,0-3.15-2.07,21.84,21.84,0,0,0-5-1.48,28.88,28.88,0,0,0-5.36-.67q-12.75,0-20,7.69t-7.23,20.09q0,11.91,7.31,19.76T929.2,239q8.34,0,12.42-2a22.7,22.7,0,0,0,2.81-1.74,20.51,20.51,0,0,1,3.31-1.9,9.45,9.45,0,0,1,3.74-.66,8.74,8.74,0,0,1,6.72,2.65,9.51,9.51,0,0,1,2.47,6.78q0,4-4.76,7.44a37.86,37.86,0,0,1-12.59,5.54,65.41,65.41,0,0,1-16.67,2.06,44,44,0,0,1-23-6,40.45,40.45,0,0,1-15.4-16.45,50.06,50.06,0,0,1-5.44-23.4,48.8,48.8,0,0,1,5.7-23.81,41.29,41.29,0,0,1,15.9-16.28,45.51,45.51,0,0,1,23.13-5.87Q942,165.42,950.8,169.8Z"/><path class="cls-2" d="M1052.17,168.23a9.68,9.68,0,0,1,2.89,7.27v69.94a9.77,9.77,0,0,1-2.89,7.2,9.89,9.89,0,0,1-7.31,2.89,9.79,9.79,0,0,1-7.23-2.81,10.22,10.22,0,0,1-3-7.11,34.81,34.81,0,0,1-11.48,8.18,35.49,35.49,0,0,1-15.23,3.39,39.66,39.66,0,0,1-21.26-5.87A41.53,41.53,0,0,1,971.64,235a49.64,49.64,0,0,1-5.53-23.65,51,51,0,0,1,5.44-23.73,41,41,0,0,1,14.89-16.36,38.59,38.59,0,0,1,20.83-5.87,41.44,41.44,0,0,1,27.39,10.25v-.17a9.76,9.76,0,0,1,2.89-7.19,9.88,9.88,0,0,1,7.31-2.89A10,10,0,0,1,1052.17,168.23Zm-23.64,62.91q7-7.84,7-19.76t-7-19.84a24.25,24.25,0,0,0-35.89,0q-7,7.94-7,19.84t6.89,19.76q6.88,7.86,17.94,7.86A23,23,0,0,0,1028.53,231.14Z"/><path class="cls-2" d="M1145.55,175.42q6.63,10,6.63,27.69v42.33a9.81,9.81,0,0,1-2.89,7.2,10.7,10.7,0,0,1-14.63,0,9.77,9.77,0,0,1-2.89-7.2V203.11q0-9.09-3.91-14.3t-13.44-5.21q-9.87,0-15.48,5.54a18.83,18.83,0,0,0-5.61,14v42.33a9.77,9.77,0,0,1-2.89,7.2,10.7,10.7,0,0,1-14.63,0,9.77,9.77,0,0,1-2.89-7.2V177.16a9.77,9.77,0,0,1,2.89-7.2,10.7,10.7,0,0,1,14.63,0,9.77,9.77,0,0,1,2.89,7.2V180a40.63,40.63,0,0,1,12-10.25,31.71,31.71,0,0,1,16.24-4.3Q1138.92,165.42,1145.55,175.42Z"/><path class="cls-2" d="M1218.26,239.08a8.6,8.6,0,0,1,2,5.87q0,4.45-5,7.52a21.26,21.26,0,0,1-11.31,3.06q-10.55,0-17.77-4.38t-7.23-18.6V186.91h-7.82a9.41,9.41,0,0,1-6.81-2.64,8.88,8.88,0,0,1-2.72-6.62,8.4,8.4,0,0,1,2.72-6.36,9.56,9.56,0,0,1,6.81-2.57h7.82V158.14a9.61,9.61,0,0,1,3-7.19,10.19,10.19,0,0,1,7.4-2.9,9.89,9.89,0,0,1,10,10.09v10.58h12.08a9.39,9.39,0,0,1,6.8,2.65,8.85,8.85,0,0,1,2.72,6.61,8.41,8.41,0,0,1-2.72,6.37,9.53,9.53,0,0,1-6.8,2.56h-12.08v44.81c0,2.31.62,4,1.87,5a7.68,7.68,0,0,0,5.1,1.57,15,15,0,0,0,3.75-.66,10.4,10.4,0,0,1,3.91-.82A5.71,5.71,0,0,1,1218.26,239.08Z"/><path class="cls-2" d="M1315.8,235.11a42.72,42.72,0,0,1-16.75,16.29,50.38,50.38,0,0,1-46.86,0,42.85,42.85,0,0,1-16.67-16.29,49.07,49.07,0,0,1,0-47.46,43.44,43.44,0,0,1,16.67-16.36,49.7,49.7,0,0,1,46.86,0,43.31,43.31,0,0,1,16.75,16.36,49.07,49.07,0,0,1,0,47.46ZM1298,196.91a25.35,25.35,0,0,0-44.73,0,29.69,29.69,0,0,0-3.48,14.47,29.22,29.22,0,0,0,3.48,14.39,25.39,25.39,0,0,0,9.36,9.75,26.06,26.06,0,0,0,26,0,25.29,25.29,0,0,0,9.35-9.75,29.12,29.12,0,0,0,3.49-14.39A29.59,29.59,0,0,0,1298,196.91Z"/><path class="cls-2" d="M1459,136a9.74,9.74,0,0,1,2.89,7.28V245.44a9.81,9.81,0,0,1-2.89,7.2,9.92,9.92,0,0,1-7.32,2.89,9.77,9.77,0,0,1-7.22-2.81,10.19,10.19,0,0,1-3-7.11,34.7,34.7,0,0,1-11.48,8.18,35.45,35.45,0,0,1-15.22,3.39,39.61,39.61,0,0,1-21.26-5.87A41.55,41.55,0,0,1,1378.47,235a49.75,49.75,0,0,1-5.52-23.65,50.84,50.84,0,0,1,5.44-23.73,41.1,41.1,0,0,1,14.88-16.36,38.61,38.61,0,0,1,20.83-5.87,41.44,41.44,0,0,1,27.39,10.25V143.26a9.75,9.75,0,0,1,2.89-7.19,9.9,9.9,0,0,1,7.31-2.9A10.1,10.1,0,0,1,1459,136Zm-23.64,95.16q7-7.84,7-19.76t-7-19.84a24.25,24.25,0,0,0-35.89,0q-7,7.94-7,19.84t6.88,19.76q6.9,7.86,17.95,7.86A23,23,0,0,0,1435.37,231.14Z"/><path class="cls-2" d="M1561.05,235.11a42.65,42.65,0,0,1-16.75,16.29,50.38,50.38,0,0,1-46.86,0,42.91,42.91,0,0,1-16.67-16.29,49.07,49.07,0,0,1,0-47.46,43.51,43.51,0,0,1,16.67-16.36,49.7,49.7,0,0,1,46.86,0,43.24,43.24,0,0,1,16.75,16.36,49,49,0,0,1,0,47.46Zm-17.77-38.2a25.34,25.34,0,0,0-44.73,0,29.59,29.59,0,0,0-3.49,14.47,29.12,29.12,0,0,0,3.49,14.39,25.29,25.29,0,0,0,9.35,9.75,26.08,26.08,0,0,0,26,0,25.37,25.37,0,0,0,9.35-9.75,29.22,29.22,0,0,0,3.49-14.39A29.7,29.7,0,0,0,1543.28,196.91Z"/><path class="cls-2" d="M1573.13,236.85q0-4.31,4.42-7.28a9.2,9.2,0,0,1,4.93-1.49,9.75,9.75,0,0,1,6.81,3.14,35.66,35.66,0,0,0,10.63,7.61,32.5,32.5,0,0,0,13.35,2.48q13.26-.5,13.26-9.76a7.88,7.88,0,0,0-4.5-7.27q-4.52-2.47-14-5a124.09,124.09,0,0,1-16.08-5.29,28.28,28.28,0,0,1-10.71-8q-4.51-5.37-4.51-14.47a21.51,21.51,0,0,1,4.68-13.81,30.69,30.69,0,0,1,12.24-9.09,40.58,40.58,0,0,1,16.08-3.22,50.71,50.71,0,0,1,17.34,3.14,30.12,30.12,0,0,1,13.61,9.26,9.06,9.06,0,0,1,2.21,6,7.6,7.6,0,0,1-3.23,6.28,8.68,8.68,0,0,1-5.44,1.82,8.44,8.44,0,0,1-6.13-2.31,21.44,21.44,0,0,0-7.9-5.79,26.88,26.88,0,0,0-11-2.15q-12.93,0-12.93,9.09a7.64,7.64,0,0,0,2.38,5.87,16.42,16.42,0,0,0,6,3.48q3.66,1.23,10.29,3.05a116.71,116.71,0,0,1,15.31,5.13,26.15,26.15,0,0,1,10.37,8.1q4.24,5.46,4.25,14.39a21.63,21.63,0,0,1-4.93,14.13A31.07,31.07,0,0,1,1627.3,254a42,42,0,0,1-15.9,3.14,59.14,59.14,0,0,1-20.92-3.63,34.67,34.67,0,0,1-15.82-11.74A7.9,7.9,0,0,1,1573.13,236.85Z"/><path class="cls-2" d="M749.09,296.1a38.5,38.5,0,0,1,0,64.32,29.93,29.93,0,0,1-16.5,5.05H703v31.25a10,10,0,0,1-2.72,7.27,9.49,9.49,0,0,1-7.15,2.81,9.14,9.14,0,0,1-7-2.89,10.07,10.07,0,0,1-2.72-7.19V301.15a9.65,9.65,0,0,1,3-7.2,10.24,10.24,0,0,1,7.4-2.89h38.78A30,30,0,0,1,749.09,296.1ZM739,344a19.42,19.42,0,0,0,5.1-6.86,20.94,20.94,0,0,0,0-17.69,18.67,18.67,0,0,0-5.1-6.78,10.09,10.09,0,0,0-6.38-2.57H703v36.55h29.59A9.94,9.94,0,0,0,739,344Z"/><path class="cls-2" d="M860.15,319.5a9.69,9.69,0,0,1,2.89,7.27v70a9.76,9.76,0,0,1-2.89,7.19,9.89,9.89,0,0,1-7.31,2.89,9.75,9.75,0,0,1-7.23-2.81,10.22,10.22,0,0,1-3-7.11,34.91,34.91,0,0,1-11.49,8.19,35.56,35.56,0,0,1-15.22,3.39,39.75,39.75,0,0,1-21.26-5.87,41.63,41.63,0,0,1-15-16.29,49.58,49.58,0,0,1-5.53-23.65,50.77,50.77,0,0,1,5.44-23.72,41,41,0,0,1,14.89-16.37,38.67,38.67,0,0,1,20.83-5.87,41.44,41.44,0,0,1,27.39,10.25v-.17a9.76,9.76,0,0,1,2.89-7.19,9.88,9.88,0,0,1,7.31-2.89A10.07,10.07,0,0,1,860.15,319.5Zm-23.64,62.91q7-7.85,7-19.76t-7-19.84a24.27,24.27,0,0,0-35.89,0q-7,7.94-7,19.84t6.89,19.76q6.88,7.86,17.94,7.86A23,23,0,0,0,836.51,382.41ZM816.7,311.23a4.32,4.32,0,0,1-1.79-4,6,6,0,0,1,1-3.14l9.87-16.86a15.72,15.72,0,0,1,4.08-4.8,8.49,8.49,0,0,1,5.27-1.82c3.06,0,5.36.78,6.89,2.32a7.57,7.57,0,0,1,2.13,6,12.36,12.36,0,0,1-3.24,7.11L828,309.91q-2.73,2.8-7.66,2.81A6.18,6.18,0,0,1,816.7,311.23Z"/><path class="cls-2" d="M874.1,388.12c0-2.87,1.47-5.29,4.42-7.28a9.19,9.19,0,0,1,4.93-1.48,9.71,9.71,0,0,1,6.81,3.14,35.79,35.79,0,0,0,10.63,7.6,32.34,32.34,0,0,0,13.35,2.48q13.26-.49,13.26-9.75a7.89,7.89,0,0,0-4.5-7.28q-4.51-2.48-14-5a122.57,122.57,0,0,1-16.08-5.29,28.28,28.28,0,0,1-10.71-8q-4.51-5.37-4.51-14.47a21.46,21.46,0,0,1,4.68-13.8,30.71,30.71,0,0,1,12.24-9.1,40.58,40.58,0,0,1,16.08-3.22A50.71,50.71,0,0,1,928,319.83a30.2,30.2,0,0,1,13.61,9.26,9.06,9.06,0,0,1,2.21,6,7.6,7.6,0,0,1-3.23,6.28,8.68,8.68,0,0,1-5.44,1.82,8.44,8.44,0,0,1-6.13-2.31,21.67,21.67,0,0,0-7.9-5.79,26.88,26.88,0,0,0-11-2.15q-12.93,0-12.93,9.1a7.67,7.67,0,0,0,2.38,5.87,16.54,16.54,0,0,0,6,3.47c2.44.82,5.87,1.85,10.29,3.06a115.36,115.36,0,0,1,15.31,5.12,26.24,26.24,0,0,1,10.37,8.1q4.25,5.46,4.25,14.39a21.68,21.68,0,0,1-4.93,14.14,31.14,31.14,0,0,1-12.67,9.17,41.81,41.81,0,0,1-15.9,3.15,59.15,59.15,0,0,1-20.92-3.64,34.6,34.6,0,0,1-15.82-11.74A7.88,7.88,0,0,1,874.1,388.12Z"/><path class="cls-2" d="M951.82,388.12c0-2.87,1.48-5.29,4.43-7.28a9.17,9.17,0,0,1,4.93-1.48,9.67,9.67,0,0,1,6.8,3.14,35.92,35.92,0,0,0,10.63,7.6A32.4,32.4,0,0,0,992,392.58q13.27-.49,13.27-9.75a7.88,7.88,0,0,0-4.51-7.28q-4.5-2.48-14-5a122.37,122.37,0,0,1-16.07-5.29,28.39,28.39,0,0,1-10.72-8q-4.5-5.37-4.5-14.47a21.45,21.45,0,0,1,4.67-13.8,30.74,30.74,0,0,1,12.25-9.1,40.53,40.53,0,0,1,16.07-3.22,50.72,50.72,0,0,1,17.35,3.14,30.25,30.25,0,0,1,13.61,9.26,9.06,9.06,0,0,1,2.21,6,7.6,7.6,0,0,1-3.23,6.28,8.69,8.69,0,0,1-5.45,1.82,8.43,8.43,0,0,1-6.12-2.31,21.71,21.71,0,0,0-7.91-5.79,26.84,26.84,0,0,0-11-2.15Q975,332.89,975,342a7.67,7.67,0,0,0,2.38,5.87,16.41,16.41,0,0,0,6,3.47c2.44.82,5.87,1.85,10.29,3.06a114.38,114.38,0,0,1,15.31,5.12,26.34,26.34,0,0,1,10.38,8.1q4.24,5.46,4.25,14.39a21.73,21.73,0,0,1-4.93,14.14,31.21,31.21,0,0,1-12.67,9.17,41.83,41.83,0,0,1-15.91,3.15,59.23,59.23,0,0,1-20.92-3.64,34.63,34.63,0,0,1-15.81-11.74A7.89,7.89,0,0,1,951.82,388.12Z"/><path class="cls-2" d="M1118.67,319.5a9.69,9.69,0,0,1,2.89,7.27v70a9.76,9.76,0,0,1-2.89,7.19,9.89,9.89,0,0,1-7.31,2.89,9.75,9.75,0,0,1-7.23-2.81,10.27,10.27,0,0,1-3-7.11,34.76,34.76,0,0,1-11.48,8.19,35.56,35.56,0,0,1-15.22,3.39,39.75,39.75,0,0,1-21.26-5.87,41.63,41.63,0,0,1-15-16.29,49.58,49.58,0,0,1-5.53-23.65,50.77,50.77,0,0,1,5.44-23.72,41,41,0,0,1,14.89-16.37,38.67,38.67,0,0,1,20.83-5.87,41.39,41.39,0,0,1,27.38,10.25v-.17a9.77,9.77,0,0,1,2.9-7.19,9.88,9.88,0,0,1,7.31-2.89A10.07,10.07,0,0,1,1118.67,319.5ZM1095,382.41q7-7.85,7-19.76t-7-19.84a24.27,24.27,0,0,0-35.89,0q-7,7.94-7,19.84t6.89,19.76q6.89,7.86,17.94,7.86A23,23,0,0,0,1095,382.41Z"/><path class="cls-2" d="M1195.29,319.5a8.3,8.3,0,0,1,3.49,6.61q0,5.13-2.72,7.69a9.11,9.11,0,0,1-6.46,2.56,17.43,17.43,0,0,1-5.79-1.15c-.34-.11-1.1-.33-2.29-.66a14.3,14.3,0,0,0-3.83-.5,15.4,15.4,0,0,0-8.51,2.65,19.33,19.33,0,0,0-6.71,8,28.84,28.84,0,0,0-2.64,12.82v39.19a9.76,9.76,0,0,1-2.89,7.19,10.7,10.7,0,0,1-14.63,0,9.76,9.76,0,0,1-2.89-7.19V328.43a9.75,9.75,0,0,1,2.89-7.19,10.68,10.68,0,0,1,14.63,0,9.75,9.75,0,0,1,2.89,7.19v2.15a25.48,25.48,0,0,1,11.23-10.34,35.29,35.29,0,0,1,15.64-3.55A13.27,13.27,0,0,1,1195.29,319.5Z"/><path class="cls-2" d="M1286.54,386.38a42.72,42.72,0,0,1-16.75,16.29,50.3,50.3,0,0,1-46.86,0,42.91,42.91,0,0,1-16.67-16.29,49,49,0,0,1,0-47.45,43.47,43.47,0,0,1,16.67-16.37,49.7,49.7,0,0,1,46.86,0,43.26,43.26,0,0,1,16.75,16.37,49,49,0,0,1,0,47.45Zm-17.77-38.19a25.33,25.33,0,0,0-44.73,0,29.55,29.55,0,0,0-3.49,14.46A29.09,29.09,0,0,0,1224,377a25.39,25.39,0,0,0,9.35,9.76,26.12,26.12,0,0,0,26,0,25.42,25.42,0,0,0,9.36-9.76,29.19,29.19,0,0,0,3.48-14.39A29.65,29.65,0,0,0,1268.77,348.19Z"/><path class="cls-2" d="M1298.62,388.12c0-2.87,1.47-5.29,4.42-7.28a9.19,9.19,0,0,1,4.93-1.48,9.71,9.71,0,0,1,6.81,3.14,35.79,35.79,0,0,0,10.63,7.6,32.34,32.34,0,0,0,13.35,2.48q13.26-.49,13.26-9.75a7.89,7.89,0,0,0-4.5-7.28q-4.51-2.48-14-5a122.87,122.87,0,0,1-16.07-5.29,28.28,28.28,0,0,1-10.71-8q-4.52-5.37-4.51-14.47a21.46,21.46,0,0,1,4.68-13.8,30.71,30.71,0,0,1,12.24-9.1,40.57,40.57,0,0,1,16.07-3.22,50.72,50.72,0,0,1,17.35,3.14,30.2,30.2,0,0,1,13.61,9.26,9.06,9.06,0,0,1,2.21,6,7.6,7.6,0,0,1-3.23,6.28,8.68,8.68,0,0,1-5.44,1.82,8.44,8.44,0,0,1-6.13-2.31,21.62,21.62,0,0,0-7.91-5.79,26.79,26.79,0,0,0-11-2.15q-12.93,0-12.93,9.1a7.67,7.67,0,0,0,2.38,5.87,16.54,16.54,0,0,0,6,3.47c2.43.82,5.87,1.85,10.29,3.06a114.67,114.67,0,0,1,15.3,5.12,26.27,26.27,0,0,1,10.38,8.1q4.24,5.46,4.25,14.39a21.68,21.68,0,0,1-4.93,14.14,31.14,31.14,0,0,1-12.67,9.17,41.81,41.81,0,0,1-15.9,3.15,59.15,59.15,0,0,1-20.92-3.64,34.6,34.6,0,0,1-15.82-11.74A7.88,7.88,0,0,1,1298.62,388.12Z"/></g><g class="cls-1"><path class="cls-2" d="M692.45,525.28a34.29,34.29,0,0,1-10.25-6.95,2.8,2.8,0,0,1-1.15-2.23,2.85,2.85,0,0,1,.91-2,2.82,2.82,0,0,1,2-.92,3,3,0,0,1,2.1.92,24.37,24.37,0,0,0,18.6,8,19.5,19.5,0,0,0,11.4-3.15,9.67,9.67,0,0,0,4.54-8.26A9.86,9.86,0,0,0,718.4,504a16.68,16.68,0,0,0-5.86-4.31,77.66,77.66,0,0,0-9.26-3.43,57.87,57.87,0,0,1-10.25-3.9,18.63,18.63,0,0,1-6.73-5.7,15.07,15.07,0,0,1-2.58-9.05,14.61,14.61,0,0,1,2.72-8.71,18.25,18.25,0,0,1,7.64-6,27.65,27.65,0,0,1,11.3-2.18,31,31,0,0,1,10.92,1.91,19.42,19.42,0,0,1,8.16,5.42,4.41,4.41,0,0,1,1.43,2.69,2.58,2.58,0,0,1-.95,1.9,3,3,0,0,1-2.1.88,2.19,2.19,0,0,1-1.62-.65,18.94,18.94,0,0,0-6.87-4.82,22.31,22.31,0,0,0-9-1.85q-7,0-11.35,3a10,10,0,0,0-.19,16.46,45.27,45.27,0,0,0,12,5.29,74.76,74.76,0,0,1,11.07,4,18.17,18.17,0,0,1,7,5.79q2.71,3.76,2.72,9.88a14.17,14.17,0,0,1-2.82,8.58,18.84,18.84,0,0,1-7.82,6.07,27.71,27.71,0,0,1-11.4,2.23A31.08,31.08,0,0,1,692.45,525.28Z"/><path class="cls-2" d="M837.18,462.45a2.67,2.67,0,0,1,.81,2v38.4a24.33,24.33,0,0,1-12.4,21.33,26.2,26.2,0,0,1-25.28,0,24.31,24.31,0,0,1-12.41-21.33v-38.4a2.64,2.64,0,0,1,.82-2,3.09,3.09,0,0,1,2.24-.79,2.89,2.89,0,0,1,2,.79,2.6,2.6,0,0,1,.86,2v38.4a18.39,18.39,0,0,0,2.58,9.55,19.28,19.28,0,0,0,16.6,9.46,19.11,19.11,0,0,0,9.68-2.55,19.33,19.33,0,0,0,7.06-6.91,18.15,18.15,0,0,0,2.62-9.55v-38.4a2.75,2.75,0,0,1,.77-2,2.66,2.66,0,0,1,2-.79A2.85,2.85,0,0,1,837.18,462.45Z"/><path class="cls-2" d="M950.52,522.09a2.43,2.43,0,0,1,.81,1.8,2.51,2.51,0,0,1-.81,2,2.9,2.9,0,0,1-2,.74h-45.7a2.78,2.78,0,0,1-2.15-.88,2.85,2.85,0,0,1-.81-2,3,3,0,0,1,.57-1.67L943.31,467H905.15a3,3,0,0,1-2-.74,2.54,2.54,0,0,1-.81-1.95,2.43,2.43,0,0,1,.81-1.86,3,3,0,0,1,2-.74h43.41a3.12,3.12,0,0,1,2.29.84,2.62,2.62,0,0,1,.86,1.94,2.92,2.92,0,0,1-.57,1.67L908.3,521.3h40.17A2.81,2.81,0,0,1,950.52,522.09Z"/><path class="cls-2" d="M1062.76,524a2.44,2.44,0,0,1-.86,1.94,2.94,2.94,0,0,1-2,.75,2.78,2.78,0,0,1-1.67-.51,3.25,3.25,0,0,1-1.1-1.35l-7.16-17h-31l-7.06,17a2.65,2.65,0,0,1-2.58,1.86,2.77,2.77,0,0,1-2-.65,2.63,2.63,0,0,1-.76-1.76V524a3,3,0,0,1,.09-.84l25.19-59.91a3.08,3.08,0,0,1,4.53-1.35,3.32,3.32,0,0,1,1.1,1.35l25.09,59.63A5.46,5.46,0,0,1,1062.76,524Zm-41.6-21.61h26.52l-13.35-31.72Z"/><path class="cls-2" d="M1173,462.4a2.58,2.58,0,0,1,.72,1.86v59.36a2.84,2.84,0,0,1-.86,2.18,3,3,0,0,1-2.1.78,3.25,3.25,0,0,1-1.29-.27,3.84,3.84,0,0,1-1-.65l-40.92-53.61v52a2.31,2.31,0,0,1-.82,1.76,2.65,2.65,0,0,1-1.86.74,2.58,2.58,0,0,1-1.9-.74,2.37,2.37,0,0,1-.77-1.76V464.44a2.64,2.64,0,0,1,.81-2,2.83,2.83,0,0,1,2-.74,2.68,2.68,0,0,1,2.29,1l41.12,53.89V464.26a2.5,2.5,0,0,1,.76-1.86,2.66,2.66,0,0,1,1.91-.74A2.59,2.59,0,0,1,1173,462.4Z"/><path class="cls-2" d="M1294.78,511.28a30.38,30.38,0,0,1-11.36,11.92,33.76,33.76,0,0,1-33,0,30.36,30.36,0,0,1-11.35-11.92,38.15,38.15,0,0,1,0-34.41A30,30,0,0,1,1250.41,465a34,34,0,0,1,33,0,30.05,30.05,0,0,1,11.36,11.87,38.15,38.15,0,0,1,0,34.41Zm-5.3-31.58a24.3,24.3,0,0,0-9.16-9.88,27.28,27.28,0,0,0-26.81,0,24.28,24.28,0,0,0-9.15,9.88,33.16,33.16,0,0,0,0,28.84,24.21,24.21,0,0,0,9.15,9.88,27.22,27.22,0,0,0,26.81,0,24.24,24.24,0,0,0,9.16-9.88,33.25,33.25,0,0,0,0-28.84Z"/></g><g class="cls-1"><path class="cls-2" d="M736.77,43.37a3.44,3.44,0,0,1-.67,1.86,2.73,2.73,0,0,1-2.19,1,2.92,2.92,0,0,1-1.53-.46,30.2,30.2,0,0,0-16.7-4.92,28,28,0,0,0-14,3.52,25.5,25.5,0,0,0-9.83,9.88,28.94,28.94,0,0,0-3.58,14.42,28.9,28.9,0,0,0,3.63,14.61,25.47,25.47,0,0,0,9.87,9.83,28.07,28.07,0,0,0,13.88,3.48,30.24,30.24,0,0,0,16.61-4.82,3,3,0,0,1,1.62-.47,2.63,2.63,0,0,1,2.19,1.12,2.51,2.51,0,0,1,.67,1.76,2.39,2.39,0,0,1-1.34,2.22,35.24,35.24,0,0,1-9.16,4,37,37,0,0,1-10.59,1.62,34.12,34.12,0,0,1-16.74-4.22A31.79,31.79,0,0,1,686.73,86a33.24,33.24,0,0,1-4.53-17.35,33.07,33.07,0,0,1,4.48-17,32.21,32.21,0,0,1,12.12-12,33.76,33.76,0,0,1,16.88-4.31,37.17,37.17,0,0,1,10.45,1.48,33.93,33.93,0,0,1,9.21,4.18A2.57,2.57,0,0,1,736.77,43.37Z"/><path class="cls-2" d="M846.53,37a2.79,2.79,0,0,1,.81,2.09V98.28a3,3,0,0,1-3.05,2.87,2.87,2.87,0,0,1-2.1-.83,2.76,2.76,0,0,1-.86-2V70.64H802.6V98.28a3.11,3.11,0,0,1-1,2,2.87,2.87,0,0,1-2.1.83,3,3,0,0,1-2.14-.78,2.79,2.79,0,0,1-.81-2.09V39.11a2.71,2.71,0,0,1,.85-2.09,3.17,3.17,0,0,1,2.2-.79,2.88,2.88,0,0,1,2.1.84,2.74,2.74,0,0,1,.86,2V65.26h38.73V39.11a2.65,2.65,0,0,1,.91-2,3,3,0,0,1,2.14-.84A3,3,0,0,1,846.53,37Z"/><path class="cls-2" d="M963,98.56a2.48,2.48,0,0,1-.86,2,3,3,0,0,1-2,.74,2.82,2.82,0,0,1-1.67-.51,3.3,3.3,0,0,1-1.09-1.35l-7.16-17h-31l-7.06,17a2.65,2.65,0,0,1-2.58,1.86,2.77,2.77,0,0,1-2-.65,2.69,2.69,0,0,1-.77-1.76v-.28a2.9,2.9,0,0,1,.1-.84l25.19-59.91A2.82,2.82,0,0,1,934.92,36a2.89,2.89,0,0,1,1.67.51,3.37,3.37,0,0,1,1.09,1.35l25.1,59.63A5.46,5.46,0,0,1,963,98.56ZM921.37,77h26.52L934.54,45.23Zm12.5-45.45a1.6,1.6,0,0,1-.48-1.2,2.53,2.53,0,0,1,1-1.67l8.49-6.4a4.23,4.23,0,0,1,2.76-1,2.8,2.8,0,0,1,2,.79,2.66,2.66,0,0,1,.82,2,3.15,3.15,0,0,1-1.82,2.87l-9.35,4.55a6,6,0,0,1-2.1.56A1.83,1.83,0,0,1,933.87,31.5Z"/><path class="cls-2" d="M1072.58,43.37a3.5,3.5,0,0,1-.66,1.86,2.76,2.76,0,0,1-2.2,1,2.92,2.92,0,0,1-1.53-.46,30.17,30.17,0,0,0-16.69-4.92,28.08,28.08,0,0,0-14,3.52,25.48,25.48,0,0,0-9.82,9.88,28.83,28.83,0,0,0-3.58,14.42,29,29,0,0,0,3.62,14.61,25.43,25.43,0,0,0,9.88,9.83,28,28,0,0,0,13.88,3.48,30.23,30.23,0,0,0,16.6-4.82,3.07,3.07,0,0,1,1.62-.47,2.66,2.66,0,0,1,2.2,1.12,2.55,2.55,0,0,1,.66,1.76,2.38,2.38,0,0,1-1.33,2.22,35.4,35.4,0,0,1-9.16,4,37.05,37.05,0,0,1-10.59,1.62,34.12,34.12,0,0,1-16.74-4.22A31.72,31.72,0,0,1,1022.55,86,33.15,33.15,0,0,1,1018,68.69a33.07,33.07,0,0,1,4.49-17,32.18,32.18,0,0,1,12.11-12,33.79,33.79,0,0,1,16.89-4.31A37.27,37.27,0,0,1,1062,36.88a33.72,33.72,0,0,1,9.2,4.18A2.55,2.55,0,0,1,1072.58,43.37Z"/><path class="cls-2" d="M1182.39,98.56a2.48,2.48,0,0,1-.86,2,3,3,0,0,1-2,.74,2.8,2.8,0,0,1-1.67-.51,3.25,3.25,0,0,1-1.1-1.35l-7.15-17h-31l-7.06,17a2.64,2.64,0,0,1-2.57,1.86,2.79,2.79,0,0,1-2-.65,2.68,2.68,0,0,1-.76-1.76v-.28a3,3,0,0,1,.09-.84l25.19-59.91a2.83,2.83,0,0,1,2.86-1.86,2.87,2.87,0,0,1,1.67.51,3.39,3.39,0,0,1,1.1,1.35l25.09,59.63A4.84,4.84,0,0,1,1182.39,98.56ZM1140.8,77h26.52L1154,45.23Z"/><path class="cls-2" d="M1292,98.47a2.89,2.89,0,0,1-.38,1.2,2.85,2.85,0,0,1-1.05,1,2.91,2.91,0,0,1-1.44.37,3.29,3.29,0,0,1-1.62-.37,10.58,10.58,0,0,1-4.29-4.82q-1.62-3.34-1.62-10.67,0-6.48-3.72-9.13a15,15,0,0,0-8.88-2.65h-21.17v25a2.76,2.76,0,0,1-.77,2,2.68,2.68,0,0,1-2,.78,3.49,3.49,0,0,1-2.29-.78,2.47,2.47,0,0,1-1-2V39a2.68,2.68,0,0,1,.81-2,2.84,2.84,0,0,1,2-.79h25.76a20.54,20.54,0,0,1,9.73,2.27,17.08,17.08,0,0,1,6.72,6.27,16.9,16.9,0,0,1,2.44,9,17.58,17.58,0,0,1-3.2,10.44,16.1,16.1,0,0,1-8.35,6.16,14.58,14.58,0,0,1,6.87,5.34,15.9,15.9,0,0,1,2.77,9.13,32.53,32.53,0,0,0,.81,8.07,5.32,5.32,0,0,0,2.34,3.25A2.72,2.72,0,0,1,1292,98.47Zm-21.28-30.15a13.12,13.12,0,0,0,6.2-2.13,13.59,13.59,0,0,0,4.58-5,14.81,14.81,0,0,0,1.72-7.23,11.56,11.56,0,0,0-3.67-8.77A13.38,13.38,0,0,0,1270,41.7h-22.13V68.32Z"/><path class="cls-2" d="M1403.44,98.56a2.48,2.48,0,0,1-.86,2,3,3,0,0,1-2,.74,2.78,2.78,0,0,1-1.67-.51,3.25,3.25,0,0,1-1.1-1.35l-7.16-17h-31l-7.06,17a2.65,2.65,0,0,1-2.58,1.86,2.77,2.77,0,0,1-2-.65,2.63,2.63,0,0,1-.76-1.76v-.28a3,3,0,0,1,.09-.84l25.19-59.91a2.83,2.83,0,0,1,2.86-1.86,2.89,2.89,0,0,1,1.67.51,3.39,3.39,0,0,1,1.1,1.35l25.09,59.63A5.46,5.46,0,0,1,1403.44,98.56ZM1361.84,77h26.52L1375,45.23Z"/></g><ellipse class="cls-3" cx="279.95" cy="272.44" rx="269.95" ry="262.44"/><path class="cls-4" d="M308,317.48l-25.26-14.64c-4.2-10.16-10.44-17-16-23.07l-.63-.68c-13.29-14.45-28-21.22-43.9-20.15-20,1.36-40,15.37-58.14,40.51-3.81-1.51-7.65-3-11.46-4.39C122,283.51,93.12,272.61,76.48,228.48l-6.82-18.07-2.38,19.1c-2.39,19.24-2.8,35.84-1.69,50.34a97.28,97.28,0,0,1-16-25.55l-7-15.82-2.12,17.09C28.12,355,76.72,376.42,119.6,395.33l.08,0c-4.27,15.73-6.62,37.38-8.89,58.38-1.08,10-2.31,21.41-3.85,31.95-2.07.33-4.09.62-6.07.92C84,489.14,71.78,491,68.33,499c-2.84,6.59,2.38,13.63,4.1,15.94,5.32,7.16,13.12,16.2,21.77,16.2a12.39,12.39,0,0,0,3.1-.4c9.58-2.48,14.44-15.46,18-37a186.55,186.55,0,0,0,23.36-5.39c68.1-21,81.1-67.38,92.58-108.3,8-28.68,15.1-53.83,40.14-65.63C278.61,311.73,308,317.48,308,317.48ZM94.85,521.76c-2.25.58-7.32-2.33-14.71-12.28-3.63-4.9-3.16-6.66-3-7,1.38-3.21,14.6-5.18,25.2-6.76l3.07-.45C102.83,509.52,99.49,520.55,94.85,521.76ZM48.44,272.51a92.94,92.94,0,0,0,19,22.25C75.66,344.24,104,365.58,129.9,385c5.61,4.21,11,8.3,16.11,12.54-7.22-3.87-14.88-7.25-22.48-10.6C84.18,369.55,43.56,351.63,48.44,272.51Zm87.37,207a169.55,169.55,0,0,1-19,4.55c1.2-8.72,2.3-18.53,3.47-29.34,2.15-20,4.38-40.52,8.21-55.44,26.66,12.11,48.12,25.08,47.64,60.46C165.64,467.61,152.55,474.36,135.81,479.51Zm49.64-27.72c-2.27-38.52-25.37-55.86-49.74-74.14-32.48-24.36-66-49.49-60.67-129.46,18.74,34.59,46.82,45.19,74.08,55.49,30.44,11.49,59.21,22.36,75,66.53-.69,2.45-1.39,4.91-2.08,7.39C214.69,403.92,207.14,430.82,185.45,451.79Zm43.1-95.88c-13.73-29.67-34.07-43.2-55.6-52.73,15.9-21.51,33.48-33.89,49.88-35,12.74-.89,24.91,4.88,36.14,17.08l.63.69c4.76,5.16,9.65,10.48,13.19,17.8C247.15,313.2,236.24,333,228.55,355.91Z"/><path class="cls-5" d="M263.78,208.16c25,11.79,32.11,37,40.15,65.63,11.47,40.92,24.47,87.3,92.57,108.3a187.37,187.37,0,0,0,23.36,5.39c3.59,21.51,8.44,34.49,18,37a12.25,12.25,0,0,0,3.09.4c8.66,0,16.46-9,21.77-16.2,1.72-2.32,6.95-9.35,4.1-15.94-3.44-8-15.65-9.81-32.54-12.33l-6.06-.92c-1.55-10.54-2.78-21.91-3.86-31.95-2.27-21-4.62-42.65-8.89-58.39l.08,0c42.88-18.92,91.49-40.36,79.13-139.76l-2.13-17.09-7,15.82a97.16,97.16,0,0,1-16,25.55c1.11-14.5.7-31.11-1.7-50.34l-2.38-19.11-6.81,18.07c-16.65,44.14-45.52,55-76.08,66.58-3.82,1.44-7.65,2.89-11.46,4.4C353.06,168.07,333,154.06,313,152.7c-15.85-1.07-30.6,5.7-43.89,20.14l-.63.69c-5.58,6.05-11.83,12.91-16,23.06l-25.25,14.64S256.58,205.49,263.78,208.16Zm166,180.9,3.07.46c10.61,1.58,23.82,3.55,25.21,6.76.13.3.59,2.06-3,7-7.39,10-12.46,12.86-14.7,12.28C435.69,414.31,432.36,403.28,429.8,389.06Zm-18.15-108.4c-7.6,3.36-15.25,6.74-22.48,10.61,5.06-4.24,10.51-8.33,16.12-12.54,25.86-19.4,54.24-40.73,62.5-90.21a93.21,93.21,0,0,0,19-22.25C491.62,245.39,451,263.3,411.65,280.66ZM359.08,353.5c-.48-35.38,21-48.36,47.63-60.46,3.83,14.92,6.06,35.47,8.22,55.44,1.17,10.81,2.27,20.62,3.47,29.34a169.19,169.19,0,0,1-19-4.55C382.64,368.11,369.54,361.36,359.08,353.5Zm-46-82.15c-.7-2.47-1.39-4.93-2.09-7.38,15.84-44.17,44.6-55,75.05-66.54,27.26-10.29,55.33-20.89,74.08-55.48,5.31,80-28.2,105.1-60.67,129.46C375.1,289.68,352,307,349.73,345.55,328.05,324.58,320.49,297.68,313.11,271.35ZM262.39,197.5c3.54-7.33,8.44-12.64,13.19-17.8l.64-.69c11.23-12.21,23.39-18,36.14-17.08,16.4,1.11,34,13.5,49.88,35-21.53,9.52-41.88,23.05-55.6,52.73C299,226.73,288,207,262.39,197.5Z"/></g></g></svg>