<svg xmlns="http://www.w3.org/2000/svg" width="48" height="48" viewBox="0 0 48 48"><defs><style>.a{fill:#025158;}</style></defs><path class="a" d="M24,0A24,24,0,1,0,48,24,24.028,24.028,0,0,0,24,0Zm1.524,7.8L31.7,4.479a21.1,21.1,0,0,1,8.667,6.39l-1.47,6.786-4.707,2.307-8.661-6.309ZM16.356,4.461l6.171,3.33v5.862l-8.655,6.309-4.731-2.31-1.47-6.828A21.069,21.069,0,0,1,16.356,4.461ZM6.69,35.862A20.861,20.861,0,0,1,3.105,26.04l5.079-5.517,4.632,2.265L16.305,32.7l-2.949,3.534Zm22.659,8.421a20.613,20.613,0,0,1-11.766-.294L15.7,38.115,18.7,34.5h10.6L32.262,38ZM34.6,36.129l-2.9-3.435,3.537-9.906,4.611-2.259L44.9,26.043a20.8,20.8,0,0,1-2.835,8.613Z"/></svg>