<svg xmlns="http://www.w3.org/2000/svg" width="47.859" height="47.999" viewBox="0 0 47.859 47.999"><defs><style>.a{fill:#025158;}</style></defs><g transform="translate(2.215 2.02)"><path class="a" d="M63.356,379.677c.069.009.137.015.205.023.827.1,1.655.174,2.477.233l.275.022c.02-.058.045-.119.066-.179s.045-.122.067-.182q.139-.374.3-.755l.009-.023c.045-.1.083-.2.132-.308a53.418,53.418,0,0,0-6.366.745l.214.036C61.609,379.437,62.482,379.57,63.356,379.677Zm0,0" transform="translate(-59.722 -362.234)"/><path class="a" d="M21.911,416.559q-.993.216-2.012.4c-.259.047-.517.1-.776.146l-.031.005c-.858.145-1.718.262-2.58.365-.29.035-.579.061-.869.092q-1.006.1-2.013.171c-.269.018-.538.037-.807.051-.929.048-1.858.083-2.785.083q-1.453,0-2.9-.079c-.043,0-.083-.007-.128-.01-.069,0-.139-.013-.208-.017q-1.316-.083-2.635-.224c-.331-.036-.662-.083-.993-.127-.623-.082-1.241-.166-1.866-.265-.382-.062-.763-.132-1.146-.2q-.878-.16-1.754-.349c-.209-.045-.414-.077-.625-.124L.613,440.506A2.483,2.483,0,0,0,3.077,442.7H17.05a2.483,2.483,0,0,0,2.465-2.192l2.828-24.034C22.2,416.5,22.055,416.526,21.911,416.559Zm-3.371,7.083a41.86,41.86,0,0,1-9.3.852,41.86,41.86,0,0,1-9.3-.852.828.828,0,0,1,.4-1.605,41.137,41.137,0,0,0,8.9.8,41.139,41.139,0,0,0,8.9-.8.828.828,0,0,1,.4,1.605Zm0-3.31a41.873,41.873,0,0,1-9.3.853,41.873,41.873,0,0,1-9.3-.853.827.827,0,0,1,.4-1.605,41.217,41.217,0,0,0,8.9.8,41.22,41.22,0,0,0,8.9-.8.827.827,0,0,1,.4,1.605Zm0,0" transform="translate(0 -398.374)"/><path class="a" d="M219.165,17.832c.225,0,.449-.006.673-.01.634-.013,1.268-.035,1.9-.071.083,0,.157-.006.236-.011.739-.045,1.479-.109,2.217-.186l.4-.043c.745-.083,1.483-.177,2.224-.291-.007-.207-.012-.414-.022-.623-.041-.815-.1-1.637-.166-2.444a25.505,25.505,0,0,1,.21-8.068,3.683,3.683,0,0,1,.89-1.469,2.926,2.926,0,0,0,.529-.745l.451-4.425a.871.871,0,0,0-.653-.927L225.975-2a.87.87,0,0,0-1.009.517l-1.671,4.117a2.953,2.953,0,0,0,.119.91,3.677,3.677,0,0,1,.1,1.714,25.515,25.515,0,0,1-3.571,7.232,31.771,31.771,0,0,0-2.872,5.228l-.033.083a.762.762,0,0,1,.1,0C217.816,17.833,218.49,17.837,219.165,17.832Zm0,0" transform="translate(-208.713)"/><path class="a" d="M763.114,914.672h-9.93a.827.827,0,0,1-.734-1.207,5.094,5.094,0,0,1,1.764-1.738,7.136,7.136,0,0,1,7.871,0,5.094,5.094,0,0,1,1.764,1.738.827.827,0,0,1-.734,1.207Zm0,0" transform="translate(-718.296 -868.693)"/><path class="a" d="M856.456,584.321a.827.827,0,0,1-.827-.828V566.944a.827.827,0,0,1,1.655,0v16.549A.828.828,0,0,1,856.456,584.321Zm0,0" transform="translate(-816.603 -540.824)"/><path class="a" d="M556.566,914.672h-9.93a.828.828,0,0,1-.735-1.207,5.094,5.094,0,0,1,1.765-1.738,7.136,7.136,0,0,1,7.871,0,5.092,5.092,0,0,1,1.764,1.738.827.827,0,0,1-.735,1.207Zm0,0" transform="translate(-521.679 -868.693)"/><path class="a" d="M649.9,567.93a.828.828,0,0,1-.827-.828V549.726a.827.827,0,1,1,1.655,0V567.1A.828.828,0,0,1,649.9,567.93Zm0,0" transform="translate(-619.979 -524.433)"/><path class="a" d="M822.52,256.3h2.316c.4.866,1.324,3.393,1.324,8.274,0,.925-.036,1.743-.1,2.483h-4.769c-.061-.74-.1-1.557-.1-2.483C821.2,259.668,822.125,257.144,822.52,256.3Zm1.5,17.269c-.118.194-.233.387-.344.579-.111-.194-.227-.387-.344-.579a12.2,12.2,0,0,1-1.839-4.856h4.371a12.192,12.192,0,0,1-1.841,4.856Zm0,0" transform="translate(-783.825 -245.898)"/><path class="a" d="M615.976,256.3h2.317c.4.866,1.324,3.393,1.324,8.274,0,.925-.037,1.743-.1,2.483H614.75c-.061-.74-.1-1.557-.1-2.483C614.652,259.668,615.583,257.144,615.976,256.3Zm1.5,17.269c-.118.194-.234.387-.344.579-.111-.194-.227-.387-.344-.579a12.185,12.185,0,0,1-1.839-4.856h4.37a12.185,12.185,0,0,1-1.841,4.856Zm0,0" transform="translate(-587.212 -245.898)"/><path class="a" d="M791.258,240.8c-.124.19-.24.389-.347.579-.107-.19-.224-.389-.348-.579a12.192,12.192,0,0,1-1.837-4.857h-1.671a13.9,13.9,0,0,0,2.093,5.71,4.558,4.558,0,0,1,.936,2.565.827.827,0,1,0,1.655,0,4.557,4.557,0,0,1,.935-2.565,13.9,13.9,0,0,0,2.093-5.71H793.1A12.184,12.184,0,0,1,791.258,240.8Zm2.309-17.981a1.669,1.669,0,0,0-1.5-.943h-2.316a1.668,1.668,0,0,0-1.5.943c-.555,1.192-1.481,3.939-1.481,8.986,0,.91.033,1.738.091,2.483h1.663c-.066-.737-.1-1.556-.1-2.483,0-4.907.927-7.43,1.324-8.274h2.309c.414.861,1.332,3.384,1.332,8.274,0,.927-.033,1.746-.1,2.483h1.663c.058-.745.091-1.572.091-2.483C795.048,226.757,794.121,224.009,793.567,222.818Zm0,0" transform="translate(-751.058 -213.131)"/><path class="a" d="M587.024,222.818a1.668,1.668,0,0,0-1.5-.943h-2.317a1.669,1.669,0,0,0-1.5.943c-.554,1.192-1.481,3.939-1.481,8.986,0,.91.033,1.738.091,2.483h1.664c-.066-.737-.1-1.556-.1-2.483,0-4.907.927-7.43,1.324-8.274h2.309c.414.861,1.332,3.384,1.332,8.274,0,.927-.033,1.746-.1,2.483h1.663c.058-.745.091-1.572.091-2.483C588.5,226.757,587.578,224.009,587.024,222.818ZM584.715,240.8c-.124.19-.24.389-.348.579-.108-.19-.224-.389-.347-.579a12.184,12.184,0,0,1-1.837-4.857h-1.671a13.9,13.9,0,0,0,2.094,5.71,4.559,4.559,0,0,1,.935,2.565.827.827,0,1,0,1.655,0,4.558,4.558,0,0,1,.935-2.565,13.909,13.909,0,0,0,2.094-5.71h-1.672A12.17,12.17,0,0,1,584.715,240.8Zm2.309-17.981a1.668,1.668,0,0,0-1.5-.943h-2.317a1.669,1.669,0,0,0-1.5.943c-.554,1.192-1.481,3.939-1.481,8.986,0,.91.033,1.738.091,2.483h1.664c-.066-.737-.1-1.556-.1-2.483,0-4.907.927-7.43,1.324-8.274h2.309c.414.861,1.332,3.384,1.332,8.274,0,.927-.033,1.746-.1,2.483h1.663c.058-.745.091-1.572.091-2.483C588.5,226.757,587.578,224.009,587.024,222.818Zm0,0" transform="translate(-554.444 -213.131)"/></g></svg>