<svg xmlns="http://www.w3.org/2000/svg" width="41.805" height="48" viewBox="0 0 41.805 48"><defs><style>.a{fill:#025158;}</style></defs><g transform="translate(-4.103 0)"><g transform="translate(4.103 0)"><path class="a" d="M32.365,10.3c-1.886-2.946,5.952-7,.993-10.125-1.138-.713-2.392,1-1.187,1.753,2.738,1.72-4.464,5-1.509,9.621C31.416,12.717,33.117,11.472,32.365,10.3Z" transform="translate(-10.435 0)"/><path class="a" d="M39.684,10.3c-1.893-2.955,5.959-7,.992-10.125A1.119,1.119,0,0,0,39.044.81c-.492,1.717,2.7.571-.1,4.4-1.506,2.06-2.336,4.19-.962,6.335C38.744,12.728,40.427,11.462,39.684,10.3Z" transform="translate(-12.235 -0.004)"/><path class="a" d="M25.015,10.3C23.121,7.338,30.981,3.3,26.007.171c-1.135-.714-2.393,1-1.187,1.753,2.718,1.708-4.448,5.031-1.509,9.621C24.069,12.717,25.765,11.474,25.015,10.3Z" transform="translate(-8.634 0)"/><path class="a" d="M25.647,30.086c11.874,0,18.118-3.028,18.118-5.534,0-2.893-7.875-5.653-17.732-5.527C16.157,18.9,8.3,21.667,8.3,24.552,8.3,27.225,15.271,30.086,25.647,30.086Zm.232-9.577c.036,0,.072,0,.109,0h.091l.109,0c7.467,0,15.025,1.317,15.025,3.831,0,3.246-11.724,3.907-15.134,3.83h-.09c-3.5.08-15.133-.608-15.133-3.83C10.856,21.825,18.412,20.509,25.879,20.509Z" transform="translate(-5.132 -4.662)"/><path class="a" d="M16.239,27.318l.06-3.736c-2.244.576-3.488,1.281-3.488,1.875S14.033,26.745,16.239,27.318Z" transform="translate(-6.237 -5.78)"/><path class="a" d="M23.078,22.463c-1.263.124-2.4.284-3.405.472L19.6,27.42c1.006.189,2.144.353,3.409.479Z" transform="translate(-7.902 -5.506)"/><path class="a" d="M29.846,22.127c-1.2.009-2.339.051-3.4.119l-.071,5.708q1.6.1,3.4.122Z" transform="translate(-9.561 -5.423)"/><path class="a" d="M43.145,28.413c0-.051-.017-.1-.023-.152-2.544,4-13.039,5.01-18.074,4.936v0h-.09v0c-6.422.094-15.777-1.329-18.073-4.936-.007.051-.02.1-.023.152-1.954.427-2.813,1.329-2.758,2.866.046,1.3,1.708,2.427,3.871,3.067a15.916,15.916,0,0,0,7.11,7.931l-4.66,10.87a1.277,1.277,0,0,0,2.347,1.007L17.4,43.366a22.113,22.113,0,0,0,15.216,0l4.624,10.787a1.277,1.277,0,0,0,2.348-1.007l-4.661-10.87a15.922,15.922,0,0,0,7.11-7.931c2.163-.64,3.824-1.766,3.871-3.067C45.957,29.742,45.1,28.841,43.145,28.413ZM6.241,31.52c-.037-.7.071-1.107.692-1.37A15.512,15.512,0,0,0,7.4,32.639C6.706,32.367,6.264,32,6.241,31.52ZM42.6,32.639a15.446,15.446,0,0,0,.473-2.489c.62.263.728.671.691,1.37C43.743,32,43.3,32.367,42.6,32.639Z" transform="translate(-4.103 -6.927)"/><path class="a" d="M49.638,25.457c0-.594-1.243-1.3-3.488-1.875l.06,3.736C48.415,26.745,49.638,26.047,49.638,25.457Z" transform="translate(-14.409 -5.78)"/><path class="a" d="M42.85,27.419l-.07-4.485c-1.007-.187-2.143-.348-3.405-.472l.067,5.434C40.706,27.772,41.844,27.609,42.85,27.419Z" transform="translate(-12.748 -5.505)"/><path class="a" d="M36.083,27.953l-.072-5.708c-1.066-.068-2.2-.109-3.4-.119l.072,5.948Q34.486,28.06,36.083,27.953Z" transform="translate(-11.089 -5.423)"/></g></g></svg>