<svg xmlns="http://www.w3.org/2000/svg" width="41.302" height="48" viewBox="0 0 41.302 48"><defs><style>.a{fill:#025158;}</style></defs><g transform="translate(0.143)"><g transform="translate(-0.143)"><path class="a" d="M30.835,16.323l-.992,2.4a13.763,13.763,0,0,1,5.85,4.408l2.463-1.016A16.131,16.131,0,0,0,30.835,16.323Z" transform="translate(-4.104 -2.332)"/><path class="a" d="M8.46,22.112l2.463,1.017a13.763,13.763,0,0,1,5.85-4.408l-.993-2.4A16.134,16.134,0,0,0,8.46,22.112Z" transform="translate(-1.049 -2.332)"/><path class="a" d="M41.857,40.571V38H35v2.571h6.857Z" transform="translate(-4.841 -5.429)"/><path class="a" d="M23.571,7.571a22.543,22.543,0,0,1,2.571.153V5H21V7.724A22.543,22.543,0,0,1,23.571,7.571Z" transform="translate(-2.841 -0.714)"/><path class="a" d="M26.714,2.571h.858V0H19V2.571h7.714Z" transform="translate(-2.555)"/><path class="a" d="M15.438,31.943a.857.857,0,0,1-1.121-.594,1.327,1.327,0,0,0-.884-.96c-.273,1.114-1.419,2.179-3.4,3.171.019.343.048.677.1,1.008H33.883c.043-.3.073-.6.093-.9a4.8,4.8,0,0,1-2.3-2.086l-.16-.231a2.411,2.411,0,0,1-1.971.7,2.25,2.25,0,0,1-1.472-1.423,9.206,9.206,0,0,0-.665-1.251,2.759,2.759,0,0,1-2.936,1.755c-1.43-.171-2.066-2.635-2.339-5.169a4.105,4.105,0,0,0-.215.4,9.453,9.453,0,0,0-.775,3.885.859.859,0,0,1-1.714.1,2.787,2.787,0,0,0-1.845-2.084,3.067,3.067,0,0,1-.064,1.589A3.548,3.548,0,0,1,15.438,31.943Z" transform="translate(-1.273 -3.708)"/><path class="a" d="M26.642,18.008l1-2.415a16.409,16.409,0,0,0-8.738,0l1,2.415a13.229,13.229,0,0,1,6.739,0Z" transform="translate(-2.541 -2.143)"/><path class="a" d="M10.079,30.741c1.2-.714,1.83-1.414,1.681-1.927a.857.857,0,0,1,.756-1.1,3.457,3.457,0,0,1,3.009,1.335,1.371,1.371,0,0,0,.377-.58,2.553,2.553,0,0,0-.595-1.982.857.857,0,0,1,.848-1.335,8.459,8.459,0,0,1,3.565,1.577,9.514,9.514,0,0,1,.658-1.954,3.485,3.485,0,0,1,2.356-2.2.849.849,0,0,1,.672.18.857.857,0,0,1,.318.619c.132,2.366.615,4.744,1.048,5.206.529.036.943-.147,1.569-2a.857.857,0,0,1,1.347-.4,7.844,7.844,0,0,1,1.964,2.9c.161.366.275.439.277.44a4,4,0,0,0,.925-.718,1.055,1.055,0,0,1,.832-.285c.605.063.961.579,1.412,1.232a7.372,7.372,0,0,0,.857,1.078,12,12,0,0,0-23.873-.091Z" transform="translate(-1.28 -2.86)"/><rect class="a" width="6" height="2" transform="translate(26 37)"/><rect class="a" width="7" height="3" transform="translate(21 32)"/><rect class="a" width="7" height="3" transform="translate(21 41)"/><path class="a" d="M2.571,30.571a18,18,0,0,1,36,0v6h2.571v-6A20.571,20.571,0,0,0,0,30.571v6H2.571Z" transform="translate(0.159 -1.429)"/><rect class="a" width="7" height="3" transform="translate(13 32)"/><rect class="a" width="8" height="2" transform="translate(17 37)"/><rect class="a" width="7" height="3" transform="translate(30 41)"/><path class="a" d="M5,32.686V34.4H7.69a13.771,13.771,0,0,1-.108-1.5v-.015c0-.067-.009-.132-.009-.2a13.606,13.606,0,0,1,1.879-6.895l-2.4-.991A16.186,16.186,0,0,0,5,32.686Z" transform="translate(-0.555 -3.543)"/><path class="a" d="M46.857,43H40v2.571h6.857Z" transform="translate(-5.555 -6.143)"/><rect class="a" width="2" height="3" transform="translate(39 41)"/><path class="a" d="M.857,55.571h6V53H0v1.714A.857.857,0,0,0,.857,55.571Z" transform="translate(0.159 -7.571)"/><rect class="a" width="2" height="3" transform="translate(0 41)"/><path class="a" d="M6.857,43H0v2.571H6.857Z" transform="translate(0.159 -6.143)"/><path class="a" d="M46.857,54.714V53H40v2.571h6A.857.857,0,0,0,46.857,54.714Z" transform="translate(-5.555 -7.571)"/><rect class="a" width="6" height="2" transform="translate(26 46)"/><path class="a" d="M5,40.571h6.857V38H5Z" transform="translate(-0.555 -5.429)"/><rect class="a" width="7" height="3" transform="translate(4 41)"/><rect class="a" width="7" height="2" transform="translate(9 37)"/><rect class="a" width="8" height="2" transform="translate(17 46)"/><rect class="a" width="7" height="2" transform="translate(9 46)"/><rect class="a" width="7" height="3" transform="translate(13 41)"/><path class="a" d="M42.258,32.686A16.179,16.179,0,0,0,40.209,24.8l-2.4.991a13.606,13.606,0,0,1,1.878,6.895,13.84,13.84,0,0,1-.118,1.714h2.69Z" transform="translate(-5.242 -3.543)"/></g></g></svg>