<svg xmlns="http://www.w3.org/2000/svg" width="62.616" height="48" viewBox="0 0 62.616 48"><defs><style>.a{fill:#025158;}</style></defs><g transform="translate(0 -59.757)"><path class="a" d="M165,91.793l-3.008-4.849a8.21,8.21,0,1,0-1.053-1.7l-7.277-11.729,10.8-3.116a5.428,5.428,0,0,0-3.01-10.43L145.1,64.691a6.652,6.652,0,0,0-3.81,9.9l4.941,7.964-8.666,5.377c10.426.24,17.959,3.414,27.432,3.859Z" transform="translate(-120.745)"/><path class="a" d="M2.336,325.59c23.7-6.737,32.652,6.864,58.908.01a1.834,1.834,0,1,0-.927-3.55c-25.225,6.585-34.189-7.038-58.984.01a1.834,1.834,0,1,0,1,3.529Z" transform="translate(0 -228.395)"/><path class="a" d="M60.317,392.02c-25.272,6.6-34.139-7.052-58.984.01a1.834,1.834,0,0,0,1,3.529c23.7-6.737,32.652,6.864,58.908.01a1.834,1.834,0,0,0-.927-3.55Z" transform="translate(0 -289.803)"/></g></svg>