<svg xmlns="http://www.w3.org/2000/svg" width="47.143" height="48" viewBox="0 0 47.143 48"><defs><style>.a{fill:#025158;}</style></defs><g transform="translate(2.684 2.02)"><path class="a" d="M357.323,712.87a1.714,1.714,0,1,1-1.714-1.714A1.714,1.714,0,0,1,357.323,712.87Zm0,0" transform="translate(-339.436 -678.89)"/><path class="a" d="M446.468,570.23a1.715,1.715,0,1,1-1.715-1.714A1.714,1.714,0,0,1,446.468,570.23Zm0,0" transform="translate(-424.295 -543.107)"/><path class="a" d="M268.186,855.5a1.714,1.714,0,1,1-1.714-1.714A1.714,1.714,0,0,1,268.186,855.5Zm0,0" transform="translate(-254.584 -814.662)"/><path class="a" d="M446.468,855.5a1.715,1.715,0,1,1-1.715-1.714A1.714,1.714,0,0,1,446.468,855.5Zm0,0" transform="translate(-424.295 -814.662)"/><path class="a" d="M535.62,712.87a1.714,1.714,0,1,1-1.714-1.714A1.714,1.714,0,0,1,535.62,712.87Zm0,0" transform="translate(-509.161 -678.89)"/><path class="a" d="M268.186,570.23a1.714,1.714,0,1,1-1.714-1.714A1.714,1.714,0,0,1,268.186,570.23Zm0,0" transform="translate(-254.584 -543.107)"/><path class="a" d="M357.323,427.6a1.714,1.714,0,1,1-1.714-1.714A1.714,1.714,0,0,1,357.323,427.6Zm0,0" transform="translate(-339.436 -407.335)"/><path class="a" d="M89.886,855.5a1.714,1.714,0,1,1-1.714-1.714A1.714,1.714,0,0,1,89.886,855.5Zm0,0" transform="translate(-84.855 -814.662)"/><path class="a" d="M179.038,712.87a1.714,1.714,0,1,1-1.715-1.714A1.714,1.714,0,0,1,179.038,712.87Zm0,0" transform="translate(-169.722 -678.89)"/><path class="a" d="M446.468,284.96a1.715,1.715,0,1,1-1.715-1.714A1.714,1.714,0,0,1,446.468,284.96Zm0,0" transform="translate(-424.295 -271.551)"/><path class="a" d="M713.909,712.87a1.714,1.714,0,1,1-1.714-1.714A1.714,1.714,0,0,1,713.909,712.87Zm0,0" transform="translate(-678.879 -678.89)"/><path class="a" d="M624.768,570.23a1.714,1.714,0,1,1-1.714-1.714A1.714,1.714,0,0,1,624.768,570.23Zm0,0" transform="translate(-594.024 -543.107)"/><path class="a" d="M803.061,855.5a1.714,1.714,0,1,1-1.715-1.714A1.714,1.714,0,0,1,803.061,855.5Zm0,0" transform="translate(-763.745 -814.662)"/><path class="a" d="M23.03,177.655a3.088,3.088,0,0,0-5.159.026L-1.43,207.4a7.026,7.026,0,0,0-1.254,4.017c0,4.165,5.338,4.286,5.947,4.286H37.655c.608,0,5.946-.121,5.946-4.286a7,7,0,0,0-1.239-3.992Zm9.428,19.194a3.429,3.429,0,1,1-3.428-3.429A3.428,3.428,0,0,1,32.459,196.849Zm-4.285-6.857a3.429,3.429,0,1,1-3.429-3.429A3.428,3.428,0,0,1,28.173,189.992Zm-4.286,6.857a3.429,3.429,0,1,1-3.429-3.429A3.429,3.429,0,0,1,23.888,196.849Zm-3.429-17.143a3.429,3.429,0,1,1-3.428,3.429A3.429,3.429,0,0,1,20.459,179.706Zm-4.285,6.857a3.428,3.428,0,1,1-3.429,3.429A3.429,3.429,0,0,1,16.173,186.563Zm-4.286,6.857a3.429,3.429,0,1,1-3.429,3.429A3.429,3.429,0,0,1,11.888,193.42ZM3.316,213.992a3.429,3.429,0,1,1,3.428-3.429A3.429,3.429,0,0,1,3.316,213.992Zm.857-10.286a3.428,3.428,0,1,1,1,2.424A3.428,3.428,0,0,1,4.173,203.706Zm7.714,10.286a3.429,3.429,0,1,1,3.429-3.429A3.429,3.429,0,0,1,11.888,213.992Zm.857-10.286a3.429,3.429,0,1,1,3.429,3.429A3.429,3.429,0,0,1,12.744,203.706Zm7.714,10.286a3.429,3.429,0,1,1,3.429-3.429A3.429,3.429,0,0,1,20.459,213.992Zm.857-10.286a3.429,3.429,0,1,1,3.428,3.429A3.428,3.428,0,0,1,21.316,203.706Zm7.714,10.286a3.429,3.429,0,1,1,3.428-3.429A3.429,3.429,0,0,1,29.03,213.992Zm.857-10.286a3.428,3.428,0,1,1,3.429,3.429A3.428,3.428,0,0,1,29.888,203.706ZM37.6,213.992a3.429,3.429,0,1,1,3.429-3.429A3.429,3.429,0,0,1,37.6,213.992Zm0,0" transform="translate(0 -169.725)"/><path class="a" d="M535.62,427.6a1.714,1.714,0,1,1-1.714-1.714A1.714,1.714,0,0,1,535.62,427.6Zm0,0" transform="translate(-509.161 -407.335)"/><path class="a" d="M624.768,855.5a1.714,1.714,0,1,1-1.714-1.714A1.714,1.714,0,0,1,624.768,855.5Zm0,0" transform="translate(-594.024 -814.662)"/><path class="a" d="M-1.016,378.5.8,376.68l-1.212-1.212-1.818,1.818a.857.857,0,0,0,.01,1.2A.856.856,0,0,0-1.016,378.5Zm0,0" transform="translate(-0.206 -359.34)"/><path class="a" d="M85.8-2.02H81.863L65.387,14.908l1.237,1.236Zm0,0" transform="translate(-64.798)"/><path class="a" d="M707.862,144.108l1.212-1.212-1.818-1.818a.857.857,0,0,0-1.212,1.212Zm0,0" transform="translate(-674.427 -135.989)"/><path class="a" d="M774.729,208.688l-1.237,1.237L783.32,220.3v-3.248Zm0,0" transform="translate(-738.861 -200.577)"/></g></svg>