<svg xmlns="http://www.w3.org/2000/svg" width="112.505" height="90.014" viewBox="0 0 112.505 90.014"><defs><style>.a{fill:#f15d27;opacity:0.6;}</style></defs><path class="a" d="M112.395-2.531a7.007,7.007,0,0,0-9.176-3.8L99.334-4.711l-6.8-17.912c8.42-6.152,11.391-17.631,6.064-26.859L83.373-75.937a5.641,5.641,0,0,0-7.031-2.391L56.25-70,36.158-78.328a5.622,5.622,0,0,0-7.031,2.391L13.9-49.482a20.576,20.576,0,0,0,6.064,26.842l-6.8,17.912L9.281-6.346a7.013,7.013,0,0,0-9.176,3.8A1.409,1.409,0,0,0,.861-.7L29.391,11.145a1.389,1.389,0,0,0,1.828-.756,7.047,7.047,0,0,0-3.8-9.193L23.537-.422l6.926-18.211a20.836,20.836,0,0,0,2.3.228A20.448,20.448,0,0,0,52.7-33.4L56.25-46.652,59.8-33.4A20.448,20.448,0,0,0,79.734-18.4a20.836,20.836,0,0,0,2.3-.228L88.945-.422,85.061,1.2a7.033,7.033,0,0,0-3.8,9.193,1.4,1.4,0,0,0,1.828.756L111.639-.7A1.4,1.4,0,0,0,112.395-2.531ZM48.5-50.256,28.793-58.43l6.416-11.144L51.82-62.684Zm15.5,0L60.68-62.684l16.611-6.891L83.707-58.43Z" transform="translate(0.004 78.76)"/></svg>