<svg xmlns="http://www.w3.org/2000/svg" width="78.748" height="90" viewBox="0 0 78.748 90"><defs><style>.a{fill:#f15d27;opacity:0.603;}</style></defs><path class="a" d="M19.688-56.25a14.023,14.023,0,0,1,7.031-12.111V-33.75h8.438V-70.312h8.438V-33.75h8.438V-68.361A14.023,14.023,0,0,1,59.063-56.25v22.5H67.5v-22.5A22.5,22.5,0,0,0,45-78.75H33.75a22.5,22.5,0,0,0-22.5,22.5v22.5h8.438Zm58.764,37.6L76.57-24.275a5.633,5.633,0,0,0-5.344-3.85H7.506a5.633,5.633,0,0,0-5.344,3.85L.281-18.65a5.639,5.639,0,0,0,5.344,7.4V8.438A2.821,2.821,0,0,0,8.438,11.25h5.625a2.821,2.821,0,0,0,2.813-2.812V-11.25h45V8.438a2.821,2.821,0,0,0,2.813,2.813h5.625a2.821,2.821,0,0,0,2.813-2.812V-11.25A5.621,5.621,0,0,0,78.451-18.65Z" transform="translate(0.004 78.75)"/></svg>