<svg xmlns="http://www.w3.org/2000/svg" width="90" height="78.75" viewBox="0 0 90 78.75"><defs><style>.a{fill:#f15d27;opacity:0.6;}</style></defs><path class="a" d="M90-53.437a8.44,8.44,0,0,0-8.437-8.437H66.094l-2.18-5.783a8.426,8.426,0,0,0-7.892-5.467H33.961a8.426,8.426,0,0,0-7.893,5.467l-2.162,5.783H8.438A8.44,8.44,0,0,0,0-53.437V-2.812A8.44,8.44,0,0,0,8.438,5.625H81.563A8.44,8.44,0,0,0,90-2.812ZM66.094-28.125A21.11,21.11,0,0,1,45-7.031,21.11,21.11,0,0,1,23.906-28.125,21.11,21.11,0,0,1,45-49.219,21.11,21.11,0,0,1,66.094-28.125Zm-5.625,0A15.492,15.492,0,0,0,45-43.594,15.492,15.492,0,0,0,29.531-28.125,15.492,15.492,0,0,0,45-12.656,15.492,15.492,0,0,0,60.469-28.125Z" transform="translate(0 73.125)"/></svg>